<svg xmlns="http://www.w3.org/2000/svg" viewBox="0 0 110.02 128.29"><defs><style>.cls-1{fill:#fcfcfc;}.cls-2{fill:#96bbd6;opacity:0.4;}</style></defs><title>pillow_1</title><g id="Layer_2" data-name="Layer 2"><g id="Layer_1-2" data-name="Layer 1"><path class="cls-1" d="M29.36,12.09c4.77-4.87,10.3-10,17.15-11.9,1-.28,2.29-.35,2.74.52a2.07,2.07,0,0,1,.15,1.05,59.62,59.62,0,0,0-.31,6.8c.48,6.62,6.67,10.48,12.06,13.52,2.65,1.5,12.16,6.48,8.09,10.3A27,27,0,0,1,63.41,36c-5,2.67-8.48,6.82-13.12,9.8A162.28,162.28,0,0,0,35,56.93c-2.24,1.85-10.54,10.13-13.17,5.17a20.25,20.25,0,0,1-1.06-4,16.14,16.14,0,0,0-3.4-5.56c-3.52-4.31-7.4-8.87-12.87-10.39a10.06,10.06,0,0,1-3.28-1.18C-4,37.26,9.25,28,12,25.76,17.74,21.2,24.25,17.29,29.36,12.09Z"/><path class="cls-2" d="M95.08,57.47C92.14,54.09,88.94,50.8,85,48.7c-4.57-2.43-9.84-3.11-15-3.64q-10-1-20.07-1.49c-3.69-.16-7.46-.26-11,.8-4.4,1.31-8.11,4.32-11.28,7.64C11.88,68.56,7.84,95.16,17.83,115.73c2.48,5.13,6.15,10.2,11.59,11.92,3.95,1.25,8.28.52,12.18-.89a36.69,36.69,0,0,0,14-9.11c4.71-4.93,7.93-11.05,11.71-16.73S75.73,89.76,82,87.18C88.59,84.51,96,85.31,103,84.57c6.6-.7,9.13-4.93,5.09-10.1C103.7,68.85,99.78,62.88,95.08,57.47Z"/></g></g></svg>