<svg xmlns="http://www.w3.org/2000/svg" viewBox="0 0 322.69 87.4"><defs><style>.cls-1{fill:#231f20;}</style></defs><title>words</title><g id="Layer_2" data-name="Layer 2"><g id="text"><path class="cls-1" d="M26.4,12.42a12.05,12.05,0,0,1-1.1,5.41,9.76,9.76,0,0,1-3,3.61,13,13,0,0,1-4.47,2,22.34,22.34,0,0,1-5.49.64v7.32H2.53V.74h9.8a22.34,22.34,0,0,1,5.49.64,13,13,0,0,1,4.47,2A9.71,9.71,0,0,1,25.3,7,12,12,0,0,1,26.4,12.42Zm-4.46,0a8.45,8.45,0,0,0-.71-3.59,6.51,6.51,0,0,0-2-2.48A8.85,8.85,0,0,0,16.17,4.9a14.63,14.63,0,0,0-3.84-.48H7.13V27.74h1.2V20.42h4a14.63,14.63,0,0,0,3.84-.48,8.85,8.85,0,0,0,3.06-1.45,6.51,6.51,0,0,0,2-2.48A8.45,8.45,0,0,0,21.94,12.42Zm-1.29,0A7.15,7.15,0,0,1,20,15.73a5.6,5.6,0,0,1-1.84,2.12A7.68,7.68,0,0,1,15.48,19a14,14,0,0,1-3.15.34h-4V5.52h4a14,14,0,0,1,3.15.34A7.68,7.68,0,0,1,18.12,7,5.6,5.6,0,0,1,20,9.11,7.15,7.15,0,0,1,20.65,12.42Zm-8.32,3.4h.41a3.71,3.71,0,0,0,2.78-.89,3.51,3.51,0,0,0,.86-2.51,3.51,3.51,0,0,0-.86-2.51A3.67,3.67,0,0,0,12.74,9h-.41Z"/><path class="cls-1" d="M28,16.1a15.61,15.61,0,0,1,1.27-6.26,16,16,0,0,1,8.58-8.57,16,16,0,0,1,12.51,0A16.34,16.34,0,0,1,55.5,4.71,16.54,16.54,0,0,1,59,9.84a15.77,15.77,0,0,1,1.26,6.26A15.77,15.77,0,0,1,59,22.36a16.18,16.18,0,0,1-8.58,8.58,16.16,16.16,0,0,1-12.51,0,16.18,16.18,0,0,1-8.58-8.58A15.61,15.61,0,0,1,28,16.1Zm4.33,0a11.36,11.36,0,0,0,.92,4.58A11.86,11.86,0,0,0,39.54,27a11.84,11.84,0,0,0,9.15,0A11.86,11.86,0,0,0,55,20.68a11.86,11.86,0,0,0,0-9.16,11.86,11.86,0,0,0-6.28-6.28,11.84,11.84,0,0,0-9.15,0,11.86,11.86,0,0,0-6.28,6.28A11.39,11.39,0,0,0,32.34,16.1ZM44.11,26.68A10.23,10.23,0,0,1,40,25.85a10.73,10.73,0,0,1-5.64-5.63,10.64,10.64,0,0,1,0-8.24A10.73,10.73,0,0,1,40,6.35a10.62,10.62,0,0,1,8.23,0,10.89,10.89,0,0,1,3.36,2.27A11.1,11.1,0,0,1,53.87,12a10.31,10.31,0,0,1,.82,4.12,10.31,10.31,0,0,1-.82,4.12,11.1,11.1,0,0,1-2.28,3.36,10.89,10.89,0,0,1-3.36,2.27A10.25,10.25,0,0,1,44.11,26.68ZM37.67,16.1a6.22,6.22,0,0,0,.51,2.51,6.56,6.56,0,0,0,1.38,2A6.43,6.43,0,0,0,46.62,22a6.39,6.39,0,0,0,2.05-1.38,6.56,6.56,0,0,0,1.38-2,6.55,6.55,0,0,0,0-5,6.56,6.56,0,0,0-1.38-2,6.39,6.39,0,0,0-2.05-1.38,6.44,6.44,0,0,0-7.06,1.38,6.56,6.56,0,0,0-1.38,2A6.26,6.26,0,0,0,37.67,16.1Z"/><path class="cls-1" d="M62.74.74H73V23.37h8.47v8.05H62.74Zm16.1,27V26.63H68.54V4.42h-1.2V27.74Z"/><path class="cls-1" d="M92.14.74H99.5l11.63,30.68h-9.66l-1-2.76H91.17l-1,2.76H80.5Zm-4.79,27,.88-2.3h15.18l.87,2.3h1.29L96.69,4.42H94.94L86.06,27.74ZM95.82,5.52,103,24.33H88.64ZM97.89,21.9l-2.07-5.39L93.75,21.9Z"/><path class="cls-1" d="M111.82.74H122.4a18.22,18.22,0,0,1,5.45.78,12.56,12.56,0,0,1,4.35,2.3,10.48,10.48,0,0,1,2.88,3.75,12,12,0,0,1,1,5.13,10.57,10.57,0,0,1-.64,3.91A11.94,11.94,0,0,1,134,19.27a9.7,9.7,0,0,1-2.07,2l5.75,10.12h-11.5l-4.6-7.78v7.78h-9.8Zm9.57,20a16.9,16.9,0,0,0,3.5-.37l4.37,7.36h1.42L126.08,20a8.62,8.62,0,0,0,4-2.69,7.26,7.26,0,0,0,1.47-4.72,7.63,7.63,0,0,0-.78-3.54,7.42,7.42,0,0,0-2.14-2.55,9.66,9.66,0,0,0-3.2-1.57,14.5,14.5,0,0,0-4-.52h-5V27.74h1.2v-7Zm-3.77-1.11V5.52h3.77A10.44,10.44,0,0,1,128,7.36a6.24,6.24,0,0,1,2.37,5.24A6.21,6.21,0,0,1,128,17.83a10.57,10.57,0,0,1-6.56,1.81Zm4-3.82h.51a5.37,5.37,0,0,0,3-.78,2.85,2.85,0,0,0,1.22-2.62,2.85,2.85,0,0,0-1.22-2.62,5.37,5.37,0,0,0-3-.78h-.51Z"/><path class="cls-1" d="M147.84.74h12a15.51,15.51,0,0,1,4.21.53,9.41,9.41,0,0,1,3.26,1.56,7.23,7.23,0,0,1,2.12,2.57A8.21,8.21,0,0,1,170.2,9a7.62,7.62,0,0,1-.37,2.5,10.6,10.6,0,0,1-.78,1.73,5.86,5.86,0,0,1-1.15,1.38,7.91,7.91,0,0,1,1.84,1.65A9.89,9.89,0,0,1,171,18.49a8.14,8.14,0,0,1,.58,3.27,10,10,0,0,1-.78,4,8.55,8.55,0,0,1-2.24,3.06A9.74,9.74,0,0,1,165,30.75a15.14,15.14,0,0,1-4.67.67H147.84Zm11.23,27c2.69,0,4.69-.58,6-1.75A6,6,0,0,0,167,21.34a5.06,5.06,0,0,0-.81-3,7.27,7.27,0,0,0-1.72-1.77,7.27,7.27,0,0,0-2.53-1,6,6,0,0,0,2-1,5.9,5.9,0,0,0,1.4-1.64,5.11,5.11,0,0,0,.62-2.64,5.25,5.25,0,0,0-1.84-4.37,7.82,7.82,0,0,0-5-1.47h-6.63V27.74ZM153.64,15V5.52h5.43a6,6,0,0,1,4.3,1.31,4.67,4.67,0,0,1,1.31,3.43,4.67,4.67,0,0,1-1.31,3.43,6,6,0,0,1-4.3,1.31Zm0,11.63V16.1H159a11,11,0,0,1,2.64.3,6.39,6.39,0,0,1,2.14.92A4.31,4.31,0,0,1,165.25,19a5.14,5.14,0,0,1,.53,2.39,4.52,4.52,0,0,1-1.86,4.05,8.68,8.68,0,0,1-4.9,1.24Zm7.08-16.56c0-1.41-.77-2.11-2.3-2.11h-1.1v4.23h1.1C160,12.19,160.72,11.48,160.72,10.07Zm-2.3,14.13q3.5,0,3.5-2.67t-3.5-2.67h-1.1V24.2Z"/><path class="cls-1" d="M173.65.74h18.08v8h-8.28v3.4h8.14v7.64h-8.14v3.54h8.6v8.05h-18.4Zm15,27V26.63h-9.2V16.56h8.74v-1.1h-8.74V5.52h9.2V4.42H178.25V27.74Z"/><path class="cls-1" d="M203.91.74h7.36l11.64,30.68h-9.66l-1-2.76H203l-1,2.76h-9.66Zm-4.78,27,.87-2.3h15.18l.88,2.3h1.29L208.47,4.42h-1.75l-8.88,23.32Zm8.46-22.22,7.18,18.81H200.42Zm2.07,16.38-2.07-5.39-2.07,5.39Z"/><path class="cls-1" d="M223.6.74h10.58a18.27,18.27,0,0,1,5.45.78A12.75,12.75,0,0,1,244,3.82a10.34,10.34,0,0,1,2.87,3.75,11.87,11.87,0,0,1,1,5.13,10.57,10.57,0,0,1-.64,3.91,11.94,11.94,0,0,1-1.43,2.66,9.7,9.7,0,0,1-2.07,2l5.75,10.12H238l-4.6-7.78v7.78h-9.8Zm9.57,20a16.9,16.9,0,0,0,3.5-.37L241,27.74h1.42L237.86,20a8.62,8.62,0,0,0,4-2.69,7.26,7.26,0,0,0,1.47-4.72,7.63,7.63,0,0,0-.78-3.54,7.53,7.53,0,0,0-2.14-2.55,9.76,9.76,0,0,0-3.2-1.57,14.5,14.5,0,0,0-4-.52h-5V27.74h1.2v-7Zm-3.77-1.11V5.52h3.77a10.44,10.44,0,0,1,6.56,1.84,6.26,6.26,0,0,1,2.36,5.24,6.23,6.23,0,0,1-2.36,5.23,10.57,10.57,0,0,1-6.56,1.81Zm4-3.82h.51a5.37,5.37,0,0,0,3-.78,2.85,2.85,0,0,0,1.22-2.62,2.85,2.85,0,0,0-1.22-2.62,5.37,5.37,0,0,0-3-.78h-.51Z"/><path class="cls-1" d="M249.59,21.9a15.62,15.62,0,0,0,2.12.5,15.21,15.21,0,0,0,2.09.37,20.66,20.66,0,0,0,2.37.14c1.41,0,2.12-.52,2.12-1.57a1.79,1.79,0,0,0-.65-1.22A19,19,0,0,0,256,18.75c-.66-.51-1.37-1.07-2.12-1.68A15.66,15.66,0,0,1,251.78,15a11.07,11.07,0,0,1-1.64-2.69,8.6,8.6,0,0,1-.64-3.43A8.9,8.9,0,0,1,250.28,5a7.73,7.73,0,0,1,2.16-2.76A9.71,9.71,0,0,1,255.69.58a13.21,13.21,0,0,1,4-.58c.73,0,1.47,0,2.2.11l2,.21,2,.28V9.2L265,9.11,264.17,9c-.3,0-.63,0-1,0l-.69,0a4.55,4.55,0,0,0-.78.12,1.65,1.65,0,0,0-.65.32.8.8,0,0,0-.27.64c0,.25.2.56.62.92s.92.8,1.52,1.29,1.25,1.06,2,1.7a14,14,0,0,1,2,2.21A12.78,12.78,0,0,1,268.43,19a9.47,9.47,0,0,1,.62,3.49,11.27,11.27,0,0,1-.64,3.8,8.09,8.09,0,0,1-2,3.08,9.48,9.48,0,0,1-3.48,2.07,14.75,14.75,0,0,1-5,.76,29.51,29.51,0,0,1-3.24-.16c-1-.11-1.88-.24-2.65-.39s-1.7-.34-2.44-.55Zm3.87,5.52c.43.09.89.16,1.38.23l1.35.16c.48,0,1,.07,1.45.07a10.45,10.45,0,0,0,2.51-.3,6.28,6.28,0,0,0,2.18-1,5.1,5.1,0,0,0,1.55-1.77,5.64,5.64,0,0,0,.57-2.65,5.07,5.07,0,0,0-.67-2.53,11.56,11.56,0,0,0-1.7-2.3,27.69,27.69,0,0,0-2.21-2.11c-.78-.68-1.52-1.36-2.2-2.05A13,13,0,0,1,256,11.11,3.92,3.92,0,0,1,255.3,9a3.18,3.18,0,0,1,1.05-2.55,5.23,5.23,0,0,1,3.41-.9l.76,0,.76.07a6,6,0,0,0,.73,0V4.46a5.76,5.76,0,0,1-.69,0,6.83,6.83,0,0,0-.71-.07q-.39,0-.81,0a7,7,0,0,0-4.09,1.13A4,4,0,0,0,254.1,9a4.59,4.59,0,0,0,.67,2.41,11.67,11.67,0,0,0,1.7,2.21c.69.72,1.43,1.42,2.21,2.1s1.51,1.35,2.21,2a11.73,11.73,0,0,1,1.7,2.14,4.45,4.45,0,0,1,.66,2.3,4,4,0,0,1-1.49,3.36,6.59,6.59,0,0,1-4.12,1.15,16.62,16.62,0,0,1-2.85-.23c-.46-.06-.9-.14-1.33-.23Z"/><path class="cls-1" d="M11.64,55.94H19L30.64,86.62H21l-1-2.76H10.67l-1,2.76H0Zm-4.79,27,.88-2.3H22.91l.87,2.3h1.29L16.19,59.62H14.44L5.57,82.94Zm8.47-22.22,7.17,18.81H8.14ZM17.39,77.1l-2.07-5.39L13.25,77.1Z"/><path class="cls-1" d="M31.33,55.94H41.91a18.31,18.31,0,0,1,5.45.78A12.61,12.61,0,0,1,51.7,59a10.48,10.48,0,0,1,2.88,3.75,12,12,0,0,1,1,5.13A10.57,10.57,0,0,1,55,71.81a11.94,11.94,0,0,1-1.43,2.66,9.7,9.7,0,0,1-2.07,2l5.75,10.12H45.72l-4.6-7.78v7.78H31.33Zm9.56,20a16.9,16.9,0,0,0,3.5-.37l4.37,7.36h1.43l-4.6-7.73a8.64,8.64,0,0,0,3.95-2.69A7.26,7.26,0,0,0,51,67.8a7.66,7.66,0,0,0-.78-3.54,7.42,7.42,0,0,0-2.14-2.55,9.5,9.5,0,0,0-3.19-1.56,14.25,14.25,0,0,0-4-.53h-5V82.94h1.19V76Zm-3.77-1.11V60.72h3.77a10.44,10.44,0,0,1,6.56,1.84,7,7,0,0,1,0,10.47,10.57,10.57,0,0,1-6.56,1.81Zm4-3.82h.51a5.43,5.43,0,0,0,3-.78,3.42,3.42,0,0,0,0-5.24,5.43,5.43,0,0,0-3-.78h-.51Z"/><path class="cls-1" d="M58.14,55.94H76.22V64H67.94v3.4h8.14V75H67.94v3.54h8.6v8.05H58.14Zm15,27V81.83h-9.2V71.76h8.74v-1.1H63.94V60.72h9.2v-1.1H62.74V82.94Z"/><path class="cls-1" d="M87.67,77.1a15.62,15.62,0,0,0,2.12.5,15.21,15.21,0,0,0,2.09.37,20.79,20.79,0,0,0,2.37.14c1.41,0,2.12-.52,2.12-1.57a1.75,1.75,0,0,0-.65-1.21A17.27,17.27,0,0,0,94.09,74c-.66-.51-1.36-1.07-2.11-1.68a15.17,15.17,0,0,1-2.12-2.12,11,11,0,0,1-1.63-2.69A8.6,8.6,0,0,1,87.58,64a8.9,8.9,0,0,1,.78-3.82,7.86,7.86,0,0,1,2.17-2.76,9.76,9.76,0,0,1,3.24-1.67,13.21,13.21,0,0,1,4-.58c.73,0,1.47,0,2.21.11l2,.21,2,.28v8.6l-.83-.09-.82-.09c-.31,0-.63,0-1,0l-.69,0a4.55,4.55,0,0,0-.78.12,1.65,1.65,0,0,0-.65.32.8.8,0,0,0-.27.64c0,.25.21.56.62.92s.92.8,1.52,1.29,1.25,1.06,2,1.7a13.51,13.51,0,0,1,2,2.21,12.78,12.78,0,0,1,1.52,2.81,9.27,9.27,0,0,1,.62,3.49,11,11,0,0,1-.64,3.8,8.09,8.09,0,0,1-2,3.08A9.48,9.48,0,0,1,101,86.64a14.75,14.75,0,0,1-5,.76,29.51,29.51,0,0,1-3.24-.16c-1-.11-1.88-.24-2.65-.39s-1.7-.34-2.44-.55Zm3.87,5.52c.43.09.89.17,1.38.23l1.36.16c.47,0,1,.07,1.44.07a10.45,10.45,0,0,0,2.51-.3,6.41,6.41,0,0,0,2.19-1A5.17,5.17,0,0,0,102,80a5.61,5.61,0,0,0,.57-2.65,5.17,5.17,0,0,0-.66-2.53,12,12,0,0,0-1.71-2.3A29.35,29.35,0,0,0,98,70.43c-.79-.68-1.52-1.36-2.21-2.05a12.39,12.39,0,0,1-1.7-2.07,3.85,3.85,0,0,1-.67-2.14,3.15,3.15,0,0,1,1.06-2.55,5.2,5.2,0,0,1,3.4-.9l.76,0,.76.07a6,6,0,0,0,.73,0v-1.2a5.76,5.76,0,0,1-.69,0,6.83,6.83,0,0,0-.71-.07c-.26,0-.53,0-.8,0a7,7,0,0,0-4.1,1.13,4,4,0,0,0-1.61,3.52,4.59,4.59,0,0,0,.67,2.41,11.67,11.67,0,0,0,1.7,2.21c.69.72,1.43,1.42,2.21,2.1s1.52,1.35,2.21,2a11.73,11.73,0,0,1,1.7,2.14,4.46,4.46,0,0,1,.67,2.3,4,4,0,0,1-1.5,3.36,6.59,6.59,0,0,1-4.12,1.15,16.62,16.62,0,0,1-2.85-.23c-.46-.06-.9-.14-1.33-.23Z"/><path class="cls-1" d="M113.25,64h-5.66V55.94H129V64h-5.66V86.62H113.25Zm5.66,18.95V60.72h6.58v-1.1H111.13v1.1h6.58V82.94Z"/><path class="cls-1" d="M130.64,55.94H141V86.62H130.64Zm5.79,27V59.62h-1.19V82.94Z"/><path class="cls-1" d="M144.25,55.94h10.22V78.57h8.46v8.05H144.25Zm16.1,27V81.83h-10.3V59.62h-1.2V82.94Z"/><path class="cls-1" d="M164.54,55.94h10.21V78.57h8.47v8.05H164.54Zm16.1,27V81.83H170.33V59.62h-1.19V82.94Z"/><path class="cls-1" d="M213.57,66.38a5.57,5.57,0,0,0-2.07-1.13,8.06,8.06,0,0,0-2.43-.39,6,6,0,0,0-2.44.48,5.89,5.89,0,0,0-1.91,1.34,6.23,6.23,0,0,0-1.27,2A7.29,7.29,0,0,0,203,71.3a6.53,6.53,0,0,0,.51,2.58,6.23,6.23,0,0,0,1.38,2,6.33,6.33,0,0,0,2.05,1.34,6.51,6.51,0,0,0,2.5.48,6.06,6.06,0,0,0,2.86-.67,6.85,6.85,0,0,0,2.2-1.81h-2.76V68.82h11.83V79A17.18,17.18,0,0,1,221,82.46a16.72,16.72,0,0,1-3.29,2.64,16.25,16.25,0,0,1-14.56,1.06,16.09,16.09,0,0,1-5.13-3.41,16,16,0,0,1-4.72-11.45,16.45,16.45,0,0,1,1.2-6.26,16,16,0,0,1,3.29-5.12A15.4,15.4,0,0,1,209,55.2a17.29,17.29,0,0,1,4.47.51,16.65,16.65,0,0,1,3.17,1.15,11.24,11.24,0,0,1,2.53,1.61Zm.46-5.94A8.26,8.26,0,0,0,212.7,60a13.3,13.3,0,0,0-1.52-.32,12.58,12.58,0,0,0-1.93-.14,11.82,11.82,0,0,0-4.55.88A11.41,11.41,0,0,0,201,62.81a10.94,10.94,0,0,0-2.46,3.71,12.3,12.3,0,0,0-.9,4.78,12,12,0,0,0,.92,4.78,10.87,10.87,0,0,0,2.53,3.71,12,12,0,0,0,8.32,3.29,11.19,11.19,0,0,0,5.75-1.5,12.19,12.19,0,0,0,4.19-4v-6h-4.88v1.1h3.68v4.6a10.38,10.38,0,0,1-8.74,4.6,10.92,10.92,0,0,1-4.11-.76A10,10,0,0,1,202,79a10.1,10.1,0,0,1-2.28-3.36,11,11,0,0,1-.83-4.3,11.13,11.13,0,0,1,.81-4.3,10.23,10.23,0,0,1,2.21-3.36,9.8,9.8,0,0,1,3.29-2.16,10.75,10.75,0,0,1,4.09-.76,8.62,8.62,0,0,1,1.56.14q.74.14,1.29.27l1.2.37Z"/><path class="cls-1" d="M226.09,55.94h10.58a18.27,18.27,0,0,1,5.45.78,12.61,12.61,0,0,1,4.34,2.3,10.48,10.48,0,0,1,2.88,3.75,12,12,0,0,1,1,5.13,10.57,10.57,0,0,1-.64,3.91,11.54,11.54,0,0,1-1.43,2.66,9.7,9.7,0,0,1-2.07,2L252,86.62h-11.5l-4.6-7.78v7.78h-9.79Zm9.56,20a16.83,16.83,0,0,0,3.5-.37l4.37,7.36H245l-4.6-7.73a8.64,8.64,0,0,0,4-2.69,7.26,7.26,0,0,0,1.47-4.72,7.66,7.66,0,0,0-.78-3.54,7.42,7.42,0,0,0-2.14-2.55,9.5,9.5,0,0,0-3.19-1.56,14.2,14.2,0,0,0-4-.53h-5V82.94h1.19V76Zm-3.77-1.11V60.72h3.77a10.44,10.44,0,0,1,6.56,1.84,7,7,0,0,1,0,10.47,10.57,10.57,0,0,1-6.56,1.81Zm4-3.82h.51a5.41,5.41,0,0,0,3-.78,3.42,3.42,0,0,0,0-5.24,5.41,5.41,0,0,0-3-.78h-.51Z"/><path class="cls-1" d="M252.9,55.94H271V64H262.7v3.4h8.14V75H262.7v3.54h8.6v8.05H252.9Zm15,27V81.83h-9.2V71.76h8.74v-1.1H258.7V60.72h9.2v-1.1H257.5V82.94Z"/><path class="cls-1" d="M283.17,55.94h7.36l11.64,30.68h-9.66l-1-2.76h-9.29l-1,2.76h-9.66Zm-4.78,27,.87-2.3h15.18l.88,2.3h1.28l-8.87-23.32H286L277.1,82.94Zm8.46-22.22L294,79.53H279.68Zm2.07,16.38-2.07-5.39-2.07,5.39Z"/><path class="cls-1" d="M306.91,64h-5.66V55.94h21.44V64H317V86.62H306.91Zm5.65,18.95V60.72h6.58v-1.1H304.79v1.1h6.58V82.94Z"/></g></g></svg>