<svg xmlns="http://www.w3.org/2000/svg" viewBox="0 0 244.32 230.54"><defs><style>.cls-1{fill:#383838;}.cls-2{fill:#fcfcfc;}.cls-3{fill:#cec6b9;}.cls-4{fill:#212121;}.cls-5{fill:#ddd3c5;}.cls-6{fill:#665f5e;}.cls-7{fill:#eadedc;}.cls-8{fill:#203364;}.cls-9{fill:#96bbd6;opacity:0.4;}</style></defs><title>lilo</title><g id="Layer_2" data-name="Layer 2"><g id="Layer_1-2" data-name="Layer 1"><rect class="cls-1" x="18.29" y="11.01" width="165.26" height="208.52" rx="15.6" transform="translate(23.43 -16.89) rotate(10.82)"/><path class="cls-2" d="M17.92,102.75c0-.52.08-1,.11-1.54,1.47-23,12.82-45.93,30-63.4,4.09-4.16,22-1.92,28.26-1.93q19.26,0,38.46,1.66c9.23.81,20.57,1.82,29.42,4.21,7.07,1.92,13.27,5.39,19.13,9.17,6.28,4.06,12.11,4.32,19,7.39,3.52,1.57,6.19,4.6,6.24,8.6.1,8-7.38,14-14.61,17.52s-15.47,6.33-19.89,13c-3.62,5.48-3.75,12.2-3.68,18.53.06,6-.53,11.8-.7,17.72-.32,11.68,8.2,22,6.53,33.85-2.06,14.6-19.18,23.74-28.72,36-2.36,3-4.36,6.4-7.75,8.62-3.92,2.58-9.11,3.24-14,3.65-27.91,2.31-61.81.37-87.87-8.84-19.49-6.89-19.19-30.42-16.3-44.71C3.33,153,8.1,144.1,11.21,135.05A134.53,134.53,0,0,0,17.92,102.75Z"/><path class="cls-3" d="M122,47a11.76,11.76,0,0,1-6.38,3.66q4.71,2.2,9.57,4.06a8.42,8.42,0,0,0,2.5.67,3,3,0,0,0,2.39-.79,12.39,12.39,0,0,1-2.13-6.27,17.07,17.07,0,0,1-4.09-.32,2.57,2.57,0,0,1-1.09-.33C122.42,47.42,121.89,47.33,122,47Z"/><path class="cls-4" d="M60.57,181.66a2.12,2.12,0,0,1-.89.89c-1,.43-2.06-.33-3.15-.38a2.81,2.81,0,0,0-2.45,1.36,5.14,5.14,0,0,0-.56,2.52c-.07,1.53-.37,3.45.53,4.73a16,16,0,0,0,3.43,3.4,18.12,18.12,0,0,0,8.69,3.56,2.33,2.33,0,0,0,1.41-.14,2.39,2.39,0,0,0,.79-.88,22.6,22.6,0,0,0,2.87-7.53c.48-2.5.28-5,1.6-7.29.3-.53.67-1.14.35-1.65a1.83,1.83,0,0,0-.71-.57c-1.83-1-5.46-2.69-7.77-2.35S61.63,180,60.57,181.66Z"/><path class="cls-4" d="M104.7,195c-.76.91-1.73,1.63-2.5,2.54-1.71,2-2.21,4.84-2.32,7.5a2.18,2.18,0,0,0,.25,1.36,2.28,2.28,0,0,0,1.71.73l7.78,1a4.42,4.42,0,0,0,2.77-.27,4.33,4.33,0,0,0,1.58-2.91c.81-3.35,1.62-6.78,1.33-10.22a2.46,2.46,0,0,0-1-2.11c-.73-.38-1.6,0-2.4.17a5.52,5.52,0,0,1-5-1.62C105.56,192.07,105.82,193.63,104.7,195Z"/><path class="cls-5" d="M124.83,28.24c3.74-1.36,7.71,1.18,10.7,3.8a7.81,7.81,0,0,1,1.7,1.84,6.09,6.09,0,0,1,.76,2.84,10.84,10.84,0,0,1-1.62,6.3,16.74,16.74,0,0,1-3.81,4.07c-2.7,2.18-5.33,4.51-8.25,3.33a12.28,12.28,0,0,1-5.63-6.29C117.38,39.42,119.93,30,124.83,28.24Z"/><path class="cls-6" d="M140.42,39.48c-.8,3.05-1.9,6.13-1.58,9.27s1.92,6.13.71,8.9c-.2.47-5.39-.67-5.9-1.13-1.11-1-1.41-3.54-1.3-4.92a41.67,41.67,0,0,1,2.83-11.33c1.74-4.68.37-5.81-3.06-8.45-1.74-1.33-4.51-2.53-1.86-5.25,2.09-2.13,6.53-.14,8.33,1.53C141.81,31.11,141.46,35.55,140.42,39.48Z"/><path class="cls-6" d="M118.08,35.56a16.67,16.67,0,0,1,3-6A10,10,0,0,1,126.89,26a3.31,3.31,0,0,1,2.48.32,1.32,1.32,0,0,1,.19,2.08,5.21,5.21,0,0,1-1.55.41,3.88,3.88,0,0,0-1.44.93l-5.74,5a6.69,6.69,0,0,0-1.32,1.39,6.12,6.12,0,0,0-.71,2c-.52,2.41-.69,4.94-1.28,7.33C115.93,43,117.3,38.21,118.08,35.56Z"/><path class="cls-7" d="M121.74,97.68c2.32.21,4.72.09,5.93-1.88.78-1.27.51-4.14.87-5.65a29.82,29.82,0,0,1,2.3-6.4c.66-1.33,1.42-2.6,2-3.94,1.88-3.93,2.68-8.26,3.47-12.54.79,2.37,3.24,3.74,5.54,4.72,10.34,4.4,16.12,13.51,23.61,21.36a3,3,0,0,0,1.62,1.08,3,3,0,0,0,1.51-.32c6.25-2.5-2.79-14.15-5.94-17.44a67.77,67.77,0,0,0-6.08-5.4L138.81,56.68a16,16,0,0,0-5.36-3.32c-2.47-.74-5.13-.25-7.69-.6-5.45-.75-9.71-5.15-15-6.68-3.29-.95-6.8-.73-10.22-.5l-14.36,1c-4,.27-8,.53-11.93,1A146.78,146.78,0,0,0,55,50.88a4.17,4.17,0,0,0-2.8,1.59c-3.53,6.23,10,2.72,11.62,2.57,5.49-.51,10.82.28,16.28.26,5.28,0,10.27,0,15.52,1.08,1.47.32,6,.33,6.74,1.4.89,1.31-1,6-1.6,7.28s-1.79,2.57-2.53,4A20,20,0,0,0,97,71.9l-1.88,5.52c-.79,2.33-3.33,9.79-.79,11.85a3.26,3.26,0,0,0,1.19.51c8,2.16,15.23,6.62,23.54,7.58C119.91,97.46,120.82,97.59,121.74,97.68Z"/><path class="cls-8" d="M93.65,85.76c.22-.32,16.46,5.9,17.7,6.3,2.82.9,9.28,1.43,11.41,3.45,3.14,3,1.26,11.77,1.15,16-.63,23.72-1.79,47.44-4.51,71-.46,4-1.25,10.76-6.09,11.48-4.64.69-9.12-4.1-9-8.26q.58-31.51,1.16-63c.07-3.86-3.56-10.23-5.58-3.52C96.47,130.4,93,141.82,88.05,152.44c-2.33,5.51-4.15,11.22-6.56,16.69-1.17,2.82-2.86,8.17-5.42,10-3.33,2.41-5.87.63-10-.58a3.55,3.55,0,0,1-1.75-.88,3.29,3.29,0,0,1-.61-2.31,31.17,31.17,0,0,1,2.07-9.14c6.23-18.58,13-36.86,19.33-55.42C87.76,103.08,89.37,92.49,93.65,85.76Z"/><path class="cls-2" d="M122.54,115.19a65.06,65.06,0,0,0-10.24,51c1.1,4.89,3.61,12.38,0,16.71a12.08,12.08,0,0,0-2,3.2c-1.66,4-.43,9-.31,13.19.11,3.84,1.68,8.46,5.75,9.67,3.54,1.05,7.41-1.15,9.36-4.18s2.45-6.7,2.93-10.24A534.6,534.6,0,0,1,147.54,107c2.05-6.56-5.77-11-11.47-8C131,101.68,125.73,110.64,122.54,115.19Z"/><path class="cls-2" d="M56.27,64.48A14.43,14.43,0,0,0,60,58.74a27.54,27.54,0,0,0,1.64-11,3.6,3.6,0,0,0-.69-2.3c-.82-.9-2.23-.78-3.45-.86a8.21,8.21,0,0,1-5.36-2.57c-1.47,4.58-5.69,7.59-8.76,11.29-2.88,3.48-7.17,9.69-3,13.25C43.86,69.63,53.26,67.12,56.27,64.48Z"/><path class="cls-9" d="M229.37,65.05c-2.94-3.38-6.14-6.67-10.1-8.77-4.57-2.43-9.84-3.12-15-3.65q-10-1-20.07-1.48c-3.69-.16-7.46-.26-11,.8-4.4,1.31-8.11,4.31-11.28,7.64-15.77,16.55-19.81,43.14-9.82,63.72,2.48,5.13,6.15,10.2,11.59,11.91,3.95,1.25,8.28.53,12.18-.88a36.69,36.69,0,0,0,14-9.11c4.71-4.93,7.93-11,11.71-16.73S210,97.34,216.33,94.76c6.55-2.67,13.92-1.87,20.95-2.61,6.6-.71,9.13-4.93,5.09-10.1C238,76.43,234.07,70.46,229.37,65.05Z"/><path class="cls-9" d="M21,55.16c-3-.12-6.2,0-8.87,1.41s-4.51,4-6.24,6.56C3.6,66.4,1.26,70,1.46,73.94c.34,6.49,7.19,10.57,13.46,12.27,12.71,3.46,26.95,2.4,38.1,9.39a30.36,30.36,0,0,1,13.66,20.54,24.3,24.3,0,0,1-2.27,15.43c-2.48,4.56-6.64,8-9.1,12.61A20.34,20.34,0,0,0,57,165.58c12.13-11.41,20.52-26.14,28.73-40.64a83.42,83.42,0,0,0,6.56-13.39c1.34-3.82,2.12-8,1.21-11.9-1-4.47-4.08-8.17-7.2-11.53C68.49,69,47.49,56.17,21,55.16Z"/></g></g></svg>