<svg id="Layer_1" data-name="Layer 1" xmlns="http://www.w3.org/2000/svg" viewBox="0 0 504 360"><defs><style>.cls-1{fill:#231f20;}</style></defs><path class="cls-1" d="M139.78,156.08v29.48h-7.19V167.13l-6.38,18.43H120l-6.42-18.48v18.48h-7.18V156.08h8.77l8,20.54L131,156.08Z"/><path class="cls-1" d="M163.13,180.15H152l-1.85,5.41h-7.56l10.88-29.48h8.27l10.88,29.48H165Zm-1.85-5.46-3.7-10.92-3.73,10.92Z"/><path class="cls-1" d="M198.34,158.56a13.64,13.64,0,0,1,4.81,8.06h-7.6a7,7,0,0,0-2.58-3.23,7.17,7.17,0,0,0-4.14-1.18,6.3,6.3,0,0,0-5.08,2.31,10.81,10.81,0,0,0,0,12.33,6.34,6.34,0,0,0,5.08,2.29A7.17,7.17,0,0,0,193,178a7,7,0,0,0,2.58-3.19h7.6a13.71,13.71,0,0,1-4.81,8,14.44,14.44,0,0,1-9.38,3,14.79,14.79,0,0,1-7.61-1.92,12.93,12.93,0,0,1-5.06-5.35,18.22,18.22,0,0,1,0-15.71,13,13,0,0,1,5.06-5.35,14.78,14.78,0,0,1,7.61-1.91A14.48,14.48,0,0,1,198.34,158.56Z"/><path class="cls-1" d="M234.9,185.56l-3.44-4.15c-.28.44-.52.79-.71,1.05a6.58,6.58,0,0,1-2.71,2.47,8.83,8.83,0,0,1-4.14.93,10.31,10.31,0,0,1-5.14-1.22,8.19,8.19,0,0,1-3.3-3.3,9.54,9.54,0,0,1-1.14-4.68,9.08,9.08,0,0,1,1.94-6,7.39,7.39,0,0,1,5-2.7l-.5-.84a8.76,8.76,0,0,1-1-2.1,7.67,7.67,0,0,1-.34-2.31,6.63,6.63,0,0,1,1-3.53,7.19,7.19,0,0,1,3-2.63,10.31,10.31,0,0,1,4.69-1,9.52,9.52,0,0,1,5.92,1.61,8,8,0,0,1,2.85,4.22,11.2,11.2,0,0,1,.47,4.08h-6.68a14.71,14.71,0,0,0-.09-1.56c-.08-1.59-.86-2.39-2.35-2.39a2,2,0,0,0-1.49.55,1.82,1.82,0,0,0-.57,1.38,2.69,2.69,0,0,0,.32,1.3,13,13,0,0,0,1,1.56l14.7,19.23ZM226.4,179a3.15,3.15,0,0,0,.94-2.35,3.19,3.19,0,0,0-1.05-2.44,3.6,3.6,0,0,0-2.52-1,3.33,3.33,0,0,0-2.37.84,3.1,3.1,0,0,0-.9,2.39,3.29,3.29,0,0,0,1,2.5,3.44,3.44,0,0,0,2.49.94A3.3,3.3,0,0,0,226.4,179Z"/><path class="cls-1" d="M276,158.56a13.64,13.64,0,0,1,4.81,8.06h-7.6a7,7,0,0,0-2.58-3.23,7.2,7.2,0,0,0-4.14-1.18,6.3,6.3,0,0,0-5.08,2.31,10.81,10.81,0,0,0,0,12.33,6.34,6.34,0,0,0,5.08,2.29,7.2,7.2,0,0,0,4.14-1.18,7,7,0,0,0,2.58-3.19h7.6a13.71,13.71,0,0,1-4.81,8,14.46,14.46,0,0,1-9.38,3,14.79,14.79,0,0,1-7.61-1.92,12.93,12.93,0,0,1-5.06-5.35,18.22,18.22,0,0,1,0-15.71,13,13,0,0,1,5.06-5.35,14.78,14.78,0,0,1,7.61-1.91A14.5,14.5,0,0,1,276,158.56Z"/><path class="cls-1" d="M310.55,155.87v29.69h-7.23V173.17H292.07v12.39h-7.19V155.87h7.19v11.51h11.25V155.87Z"/><path class="cls-1" d="M322.68,161.58v6.22h10v5.42h-10v6.59H334v5.75H315.5V155.87H334v5.71Z"/><path class="cls-1" d="M345.24,161.58v6.22h10v5.42h-10v6.59h11.29v5.75H338.05V155.87h18.48v5.71Z"/><path class="cls-1" d="M380.75,181.53a8.43,8.43,0,0,1-3.53,3.15,12.35,12.35,0,0,1-5.65,1.18,13.25,13.25,0,0,1-8.23-2.44,8.82,8.82,0,0,1-3.53-6.8h7.64a4,4,0,0,0,1.2,2.64,3.67,3.67,0,0,0,2.63,1,3,3,0,0,0,2.18-.76,2.64,2.64,0,0,0,.8-2,2.59,2.59,0,0,0-.74-1.89,5.69,5.69,0,0,0-1.82-1.24c-.73-.32-1.74-.71-3-1.16a35.71,35.71,0,0,1-4.6-1.87,8.38,8.38,0,0,1-3.06-2.68,8.77,8.77,0,0,1,.06-9.22,8.47,8.47,0,0,1,3.72-3,13.47,13.47,0,0,1,5.44-1,12.18,12.18,0,0,1,7.87,2.35,9,9,0,0,1,3.3,6.47h-7.77a4,4,0,0,0-1.07-2.33,3.13,3.13,0,0,0-2.33-.86,3,3,0,0,0-2,.67,2.45,2.45,0,0,0-.78,2,2.52,2.52,0,0,0,.69,1.79,5.26,5.26,0,0,0,1.75,1.19c.7.31,1.71.7,3,1.18a32.25,32.25,0,0,1,4.66,1.91,8.93,8.93,0,0,1,3.11,2.75,7.86,7.86,0,0,1,1.3,4.71A8.24,8.24,0,0,1,380.75,181.53Z"/><path class="cls-1" d="M393.12,161.58v6.22h10v5.42h-10v6.59h11.29v5.75H385.93V155.87h18.48v5.71Z"/></svg>